# xmcd CD database file
#
# Track frame offsets:
#	150
#	12964
#	26385
#	39348
#	56926
#	70915
#	84860
#	98165
#	110787
#	161259
#	200287
#	241167
#
# Disc length: 3793 seconds
#
# Revision: 0
# Processed by: cddbd v1.5.2PL0 Copyright (c) Steve Scherf et al.
# Submitted via: CDex 1.79
#
DISCID=8e0ecf0c
DTITLE=Elmo Hope - New Faces - New Sounds and Informal Jazz
DYEAR=1900
DGENRE=Jazz
TTITLE0=Mo Is On
TTITLE1=Sweet And Lovely
TTITLE2=Happy Hour
TTITLE3=Hot Sauce
TTITLE4=Stars Over Marakesh
TTITLE5=Freffie
TTITLE6=Carvin' The Rock
TTITLE7=Remember You
TTITLE8=Weeja
TTITLE9=Polka Dots And Moonbeams
TTITLE10=On It
TTITLE11=Avalon
EXTD=
EXTT0=
EXTT1=
EXTT2=
EXTT3=
EXTT4=
EXTT5=
EXTT6=
EXTT7=
EXTT8=
EXTT9=
EXTT10=
EXTT11=
PLAYORDER=
